<mxfile host="app.diagrams.net" modified="2020-08-06T11:04:38.376Z" agent="5.0 (Windows)" etag="myCVh-F5lR_ajeNkiMH_" version="13.6.0" type="github">
  <diagram id="9qeXml2XN3RkNt0Yiv7S" name="Page-1">
    <mxGraphModel dx="1117" dy="617" grid="1" gridSize="10" guides="1" tooltips="1" connect="1" arrows="1" fold="1" page="1" pageScale="1" pageWidth="850" pageHeight="1100" math="0" shadow="0">
      <root>
        <mxCell id="0" />
        <mxCell id="1" parent="0" />
        <mxCell id="1t7w9pWzUJEgfjAFMnWV-1" value="" style="rounded=0;whiteSpace=wrap;html=1;" vertex="1" parent="1">
          <mxGeometry width="960" height="560" as="geometry" />
        </mxCell>
        <mxCell id="1t7w9pWzUJEgfjAFMnWV-2" value="" style="rounded=0;whiteSpace=wrap;html=1;" vertex="1" parent="1">
          <mxGeometry width="960" height="60" as="geometry" />
        </mxCell>
        <mxCell id="1t7w9pWzUJEgfjAFMnWV-3" value="" style="rounded=0;whiteSpace=wrap;html=1;" vertex="1" parent="1">
          <mxGeometry x="30" y="90" width="900" height="370" as="geometry" />
        </mxCell>
        <mxCell id="1t7w9pWzUJEgfjAFMnWV-4" value="" style="rounded=0;whiteSpace=wrap;html=1;" vertex="1" parent="1">
          <mxGeometry x="100" y="480" width="750" height="40" as="geometry" />
        </mxCell>
        <mxCell id="1t7w9pWzUJEgfjAFMnWV-5" value="" style="rounded=0;whiteSpace=wrap;html=1;" vertex="1" parent="1">
          <mxGeometry x="100" y="480" width="90" height="40" as="geometry" />
        </mxCell>
        <mxCell id="1t7w9pWzUJEgfjAFMnWV-6" value="" style="rounded=0;whiteSpace=wrap;html=1;" vertex="1" parent="1">
          <mxGeometry x="190" y="480" width="100" height="40" as="geometry" />
        </mxCell>
        <mxCell id="1t7w9pWzUJEgfjAFMnWV-7" value="" style="rounded=0;whiteSpace=wrap;html=1;" vertex="1" parent="1">
          <mxGeometry x="290" y="480" width="100" height="40" as="geometry" />
        </mxCell>
        <mxCell id="1t7w9pWzUJEgfjAFMnWV-8" value="" style="rounded=0;whiteSpace=wrap;html=1;" vertex="1" parent="1">
          <mxGeometry x="390" y="480" width="100" height="40" as="geometry" />
        </mxCell>
        <mxCell id="1t7w9pWzUJEgfjAFMnWV-9" value="" style="rounded=0;whiteSpace=wrap;html=1;" vertex="1" parent="1">
          <mxGeometry x="490" y="480" width="110" height="40" as="geometry" />
        </mxCell>
        <mxCell id="1t7w9pWzUJEgfjAFMnWV-10" value="" style="rounded=0;whiteSpace=wrap;html=1;" vertex="1" parent="1">
          <mxGeometry x="600" y="480" width="100" height="40" as="geometry" />
        </mxCell>
        <mxCell id="1t7w9pWzUJEgfjAFMnWV-11" value="" style="rounded=0;whiteSpace=wrap;html=1;" vertex="1" parent="1">
          <mxGeometry x="700" y="480" width="80" height="40" as="geometry" />
        </mxCell>
        <mxCell id="1t7w9pWzUJEgfjAFMnWV-12" value="1" style="text;html=1;strokeColor=none;fillColor=none;align=center;verticalAlign=middle;whiteSpace=wrap;rounded=0;" vertex="1" parent="1">
          <mxGeometry x="125" y="490" width="40" height="20" as="geometry" />
        </mxCell>
        <mxCell id="1t7w9pWzUJEgfjAFMnWV-13" value="2" style="text;html=1;strokeColor=none;fillColor=none;align=center;verticalAlign=middle;whiteSpace=wrap;rounded=0;" vertex="1" parent="1">
          <mxGeometry x="210" y="490" width="40" height="20" as="geometry" />
        </mxCell>
        <mxCell id="1t7w9pWzUJEgfjAFMnWV-14" value="3" style="text;html=1;strokeColor=none;fillColor=none;align=center;verticalAlign=middle;whiteSpace=wrap;rounded=0;" vertex="1" parent="1">
          <mxGeometry x="310" y="490" width="40" height="20" as="geometry" />
        </mxCell>
        <mxCell id="1t7w9pWzUJEgfjAFMnWV-15" value="4" style="text;html=1;strokeColor=none;fillColor=none;align=center;verticalAlign=middle;whiteSpace=wrap;rounded=0;" vertex="1" parent="1">
          <mxGeometry x="410" y="490" width="40" height="20" as="geometry" />
        </mxCell>
        <mxCell id="1t7w9pWzUJEgfjAFMnWV-16" value="5" style="text;html=1;strokeColor=none;fillColor=none;align=center;verticalAlign=middle;whiteSpace=wrap;rounded=0;" vertex="1" parent="1">
          <mxGeometry x="520" y="490" width="40" height="20" as="geometry" />
        </mxCell>
        <mxCell id="1t7w9pWzUJEgfjAFMnWV-17" value="6" style="text;html=1;strokeColor=none;fillColor=none;align=center;verticalAlign=middle;whiteSpace=wrap;rounded=0;" vertex="1" parent="1">
          <mxGeometry x="620" y="490" width="40" height="20" as="geometry" />
        </mxCell>
        <mxCell id="1t7w9pWzUJEgfjAFMnWV-18" value="7" style="text;html=1;strokeColor=none;fillColor=none;align=center;verticalAlign=middle;whiteSpace=wrap;rounded=0;" vertex="1" parent="1">
          <mxGeometry x="720" y="490" width="40" height="20" as="geometry" />
        </mxCell>
        <mxCell id="1t7w9pWzUJEgfjAFMnWV-19" value="8" style="text;html=1;strokeColor=none;fillColor=none;align=center;verticalAlign=middle;whiteSpace=wrap;rounded=0;" vertex="1" parent="1">
          <mxGeometry x="780" y="490" width="40" height="20" as="geometry" />
        </mxCell>
        <mxCell id="1t7w9pWzUJEgfjAFMnWV-20" value="" style="rounded=0;whiteSpace=wrap;html=1;" vertex="1" parent="1">
          <mxGeometry x="30" y="90" width="900" height="40" as="geometry" />
        </mxCell>
        <mxCell id="1t7w9pWzUJEgfjAFMnWV-21" value="xxxxxxxx" style="rounded=0;whiteSpace=wrap;html=1;" vertex="1" parent="1">
          <mxGeometry x="30" y="130" width="900" height="40" as="geometry" />
        </mxCell>
        <mxCell id="1t7w9pWzUJEgfjAFMnWV-22" value="xxxxxxxx" style="rounded=0;whiteSpace=wrap;html=1;" vertex="1" parent="1">
          <mxGeometry x="30" y="170" width="900" height="40" as="geometry" />
        </mxCell>
        <mxCell id="1t7w9pWzUJEgfjAFMnWV-23" value="xxxxxxxx" style="rounded=0;whiteSpace=wrap;html=1;" vertex="1" parent="1">
          <mxGeometry x="30" y="210" width="900" height="40" as="geometry" />
        </mxCell>
        <mxCell id="1t7w9pWzUJEgfjAFMnWV-24" value="xxxxxxxx" style="rounded=0;whiteSpace=wrap;html=1;" vertex="1" parent="1">
          <mxGeometry x="30" y="250" width="900" height="40" as="geometry" />
        </mxCell>
        <mxCell id="1t7w9pWzUJEgfjAFMnWV-25" value="xxxxxxxx" style="rounded=0;whiteSpace=wrap;html=1;" vertex="1" parent="1">
          <mxGeometry x="30" y="290" width="900" height="40" as="geometry" />
        </mxCell>
        <mxCell id="1t7w9pWzUJEgfjAFMnWV-26" value="xxxxxxxx" style="rounded=0;whiteSpace=wrap;html=1;" vertex="1" parent="1">
          <mxGeometry x="30" y="330" width="900" height="40" as="geometry" />
        </mxCell>
        <mxCell id="1t7w9pWzUJEgfjAFMnWV-27" value="xxxxxxxx" style="rounded=0;whiteSpace=wrap;html=1;" vertex="1" parent="1">
          <mxGeometry x="30" y="370" width="900" height="30" as="geometry" />
        </mxCell>
        <mxCell id="1t7w9pWzUJEgfjAFMnWV-28" value="xxxxxxxx" style="rounded=0;whiteSpace=wrap;html=1;" vertex="1" parent="1">
          <mxGeometry x="30" y="430" width="900" height="30" as="geometry" />
        </mxCell>
        <mxCell id="1t7w9pWzUJEgfjAFMnWV-29" value="1" style="text;html=1;strokeColor=none;fillColor=none;align=center;verticalAlign=middle;whiteSpace=wrap;rounded=0;" vertex="1" parent="1">
          <mxGeometry x="50" y="100" width="40" height="20" as="geometry" />
        </mxCell>
        <mxCell id="1t7w9pWzUJEgfjAFMnWV-30" value="2" style="text;html=1;strokeColor=none;fillColor=none;align=center;verticalAlign=middle;whiteSpace=wrap;rounded=0;" vertex="1" parent="1">
          <mxGeometry x="50" y="140" width="40" height="20" as="geometry" />
        </mxCell>
        <mxCell id="1t7w9pWzUJEgfjAFMnWV-31" value="3" style="text;html=1;strokeColor=none;fillColor=none;align=center;verticalAlign=middle;whiteSpace=wrap;rounded=0;" vertex="1" parent="1">
          <mxGeometry x="50" y="180" width="40" height="20" as="geometry" />
        </mxCell>
        <mxCell id="1t7w9pWzUJEgfjAFMnWV-32" value="4" style="text;html=1;strokeColor=none;fillColor=none;align=center;verticalAlign=middle;whiteSpace=wrap;rounded=0;" vertex="1" parent="1">
          <mxGeometry x="50" y="220" width="40" height="20" as="geometry" />
        </mxCell>
        <mxCell id="1t7w9pWzUJEgfjAFMnWV-33" value="5" style="text;html=1;strokeColor=none;fillColor=none;align=center;verticalAlign=middle;whiteSpace=wrap;rounded=0;" vertex="1" parent="1">
          <mxGeometry x="50" y="260" width="40" height="20" as="geometry" />
        </mxCell>
        <mxCell id="1t7w9pWzUJEgfjAFMnWV-34" value="6" style="text;html=1;strokeColor=none;fillColor=none;align=center;verticalAlign=middle;whiteSpace=wrap;rounded=0;" vertex="1" parent="1">
          <mxGeometry x="50" y="300" width="40" height="20" as="geometry" />
        </mxCell>
        <mxCell id="1t7w9pWzUJEgfjAFMnWV-35" value="7" style="text;html=1;strokeColor=none;fillColor=none;align=center;verticalAlign=middle;whiteSpace=wrap;rounded=0;" vertex="1" parent="1">
          <mxGeometry x="50" y="340" width="40" height="20" as="geometry" />
        </mxCell>
        <mxCell id="1t7w9pWzUJEgfjAFMnWV-36" value="8" style="text;html=1;strokeColor=none;fillColor=none;align=center;verticalAlign=middle;whiteSpace=wrap;rounded=0;" vertex="1" parent="1">
          <mxGeometry x="50" y="375" width="40" height="20" as="geometry" />
        </mxCell>
        <mxCell id="1t7w9pWzUJEgfjAFMnWV-37" value="9" style="text;html=1;strokeColor=none;fillColor=none;align=center;verticalAlign=middle;whiteSpace=wrap;rounded=0;" vertex="1" parent="1">
          <mxGeometry x="50" y="410" width="40" height="20" as="geometry" />
        </mxCell>
        <mxCell id="1t7w9pWzUJEgfjAFMnWV-38" value="10" style="text;html=1;strokeColor=none;fillColor=none;align=center;verticalAlign=middle;whiteSpace=wrap;rounded=0;" vertex="1" parent="1">
          <mxGeometry x="50" y="435" width="40" height="20" as="geometry" />
        </mxCell>
        <mxCell id="1t7w9pWzUJEgfjAFMnWV-39" value="xxxxxxx" style="text;html=1;strokeColor=none;fillColor=none;align=center;verticalAlign=middle;whiteSpace=wrap;rounded=0;" vertex="1" parent="1">
          <mxGeometry x="210" y="100" width="40" height="20" as="geometry" />
        </mxCell>
        <mxCell id="1t7w9pWzUJEgfjAFMnWV-40" value="xxxxxx" style="text;html=1;strokeColor=none;fillColor=none;align=center;verticalAlign=middle;whiteSpace=wrap;rounded=0;" vertex="1" parent="1">
          <mxGeometry x="210" y="140" width="40" height="20" as="geometry" />
        </mxCell>
        <mxCell id="1t7w9pWzUJEgfjAFMnWV-41" value="xxxxx" style="text;html=1;strokeColor=none;fillColor=none;align=center;verticalAlign=middle;whiteSpace=wrap;rounded=0;" vertex="1" parent="1">
          <mxGeometry x="210" y="180" width="40" height="20" as="geometry" />
        </mxCell>
        <mxCell id="1t7w9pWzUJEgfjAFMnWV-42" value="xxxxxx" style="text;html=1;strokeColor=none;fillColor=none;align=center;verticalAlign=middle;whiteSpace=wrap;rounded=0;" vertex="1" parent="1">
          <mxGeometry x="210" y="220" width="40" height="20" as="geometry" />
        </mxCell>
        <mxCell id="1t7w9pWzUJEgfjAFMnWV-43" value="xxxxx" style="text;html=1;strokeColor=none;fillColor=none;align=center;verticalAlign=middle;whiteSpace=wrap;rounded=0;" vertex="1" parent="1">
          <mxGeometry x="210" y="260" width="40" height="20" as="geometry" />
        </mxCell>
        <mxCell id="1t7w9pWzUJEgfjAFMnWV-44" value="xxxx" style="text;html=1;strokeColor=none;fillColor=none;align=center;verticalAlign=middle;whiteSpace=wrap;rounded=0;" vertex="1" parent="1">
          <mxGeometry x="210" y="300" width="40" height="20" as="geometry" />
        </mxCell>
        <mxCell id="1t7w9pWzUJEgfjAFMnWV-45" value="xxxx" style="text;html=1;strokeColor=none;fillColor=none;align=center;verticalAlign=middle;whiteSpace=wrap;rounded=0;" vertex="1" parent="1">
          <mxGeometry x="210" y="340" width="40" height="20" as="geometry" />
        </mxCell>
        <mxCell id="1t7w9pWzUJEgfjAFMnWV-46" value="xxxxxx" style="text;html=1;strokeColor=none;fillColor=none;align=center;verticalAlign=middle;whiteSpace=wrap;rounded=0;" vertex="1" parent="1">
          <mxGeometry x="210" y="375" width="40" height="20" as="geometry" />
        </mxCell>
        <mxCell id="1t7w9pWzUJEgfjAFMnWV-47" value="xxxxxx" style="text;html=1;strokeColor=none;fillColor=none;align=center;verticalAlign=middle;whiteSpace=wrap;rounded=0;" vertex="1" parent="1">
          <mxGeometry x="210" y="400" width="40" height="20" as="geometry" />
        </mxCell>
        <mxCell id="1t7w9pWzUJEgfjAFMnWV-48" value="xxxx" style="text;html=1;strokeColor=none;fillColor=none;align=center;verticalAlign=middle;whiteSpace=wrap;rounded=0;" vertex="1" parent="1">
          <mxGeometry x="200" y="435" width="40" height="20" as="geometry" />
        </mxCell>
        <mxCell id="1t7w9pWzUJEgfjAFMnWV-49" value="No" style="text;html=1;strokeColor=none;fillColor=none;align=center;verticalAlign=middle;whiteSpace=wrap;rounded=0;" vertex="1" parent="1">
          <mxGeometry x="50" y="70" width="40" height="20" as="geometry" />
        </mxCell>
        <mxCell id="1t7w9pWzUJEgfjAFMnWV-50" value="Name" style="text;html=1;strokeColor=none;fillColor=none;align=center;verticalAlign=middle;whiteSpace=wrap;rounded=0;" vertex="1" parent="1">
          <mxGeometry x="210" y="70" width="40" height="20" as="geometry" />
        </mxCell>
        <mxCell id="1t7w9pWzUJEgfjAFMnWV-51" value="email" style="text;html=1;strokeColor=none;fillColor=none;align=center;verticalAlign=middle;whiteSpace=wrap;rounded=0;" vertex="1" parent="1">
          <mxGeometry x="460" y="70" width="40" height="20" as="geometry" />
        </mxCell>
        <mxCell id="1t7w9pWzUJEgfjAFMnWV-52" value="xxxxxxxx" style="text;html=1;strokeColor=none;fillColor=none;align=center;verticalAlign=middle;whiteSpace=wrap;rounded=0;" vertex="1" parent="1">
          <mxGeometry x="460" y="100" width="40" height="20" as="geometry" />
        </mxCell>
        <mxCell id="1t7w9pWzUJEgfjAFMnWV-54" value="xxxxxxxx" style="text;html=1;strokeColor=none;fillColor=none;align=center;verticalAlign=middle;whiteSpace=wrap;rounded=0;" vertex="1" parent="1">
          <mxGeometry x="460" y="400" width="40" height="20" as="geometry" />
        </mxCell>
        <mxCell id="1t7w9pWzUJEgfjAFMnWV-55" value="Home" style="text;html=1;strokeColor=none;fillColor=none;align=center;verticalAlign=middle;whiteSpace=wrap;rounded=0;" vertex="1" parent="1">
          <mxGeometry x="100" y="30" width="40" height="20" as="geometry" />
        </mxCell>
        <mxCell id="1t7w9pWzUJEgfjAFMnWV-56" value="List" style="text;html=1;strokeColor=none;fillColor=none;align=center;verticalAlign=middle;whiteSpace=wrap;rounded=0;" vertex="1" parent="1">
          <mxGeometry x="290" y="30" width="40" height="20" as="geometry" />
        </mxCell>
      </root>
    </mxGraphModel>
  </diagram>
</mxfile>
